<?xml version="1.0" encoding="UTF-8"?>
<svg width="600px" height="256px" viewBox="0 0 600 256" version="1.1" xmlns="http://www.w3.org/2000/svg" xmlns:xlink="http://www.w3.org/1999/xlink">
    <!-- Generator: Sketch 62 (91390) - https://sketch.com -->
    <title>Group 5</title>
    <desc>Created with Sketch.</desc>
    <defs>
        <path d="M44.5399993,99.4 L44.5399993,96.7399984 L36.4199994,96.7399984 L36.4199994,51.0999991 L64.2799989,51.0999991 L64.2799989,96.7399984 L56.0199991,96.7399984 L56.0199991,99.4 L99.8399983,99.4 L99.8399983,96.7399984 L91.5799985,96.7399984 L91.5799985,4.05999993 L99.8399983,4.05999993 L99.8399983,1.39999998 L56.0199991,1.39999998 L56.0199991,4.05999993 L64.2799989,4.05999993 L64.2799989,47.4599992 L36.4199994,47.4599992 L36.4199994,4.05999993 L44.5399993,4.05999993 L44.5399993,1.39999998 L0.860000002,1.39999998 L0.860000002,4.05999993 L9.11999986,4.05999993 L9.11999986,96.7399984 L0.860000002,96.7399984 L0.860000002,99.4 L44.5399993,99.4 Z M148.373331,99.3999983 L148.373331,96.7399984 L137.873331,96.7399984 L148.653331,66.4999989 L176.37333,66.4999989 L186.59333,96.7399984 L176.65333,96.7399984 L176.65333,99.3999983 L222.43333,99.3999983 L222.43333,96.7399984 L215.99333,96.7399984 L180.71333,0.55999999 L169.23333,0.55999999 L133.533331,96.7399984 L126.953331,96.7399984 L126.953331,99.3999983 L148.373331,99.3999983 Z M175.25333,63.4199989 L149.913331,63.4199989 L163.073331,26.7399995 L175.25333,63.4199989 Z M269.286662,99.4 L269.286662,96.7399984 L261.586662,96.7399984 L261.586662,8.81999985 L309.606662,99.4 L329.206661,99.4 L329.206661,4.05999993 L336.906661,4.05999993 L336.906661,1.39999998 L317.726661,1.39999998 L317.726661,4.05999993 L325.426661,4.05999993 L325.426661,71.6799988 L288.746662,1.39999998 L250.106662,1.39999998 L250.106662,4.05999993 L257.806662,4.05999993 L257.806662,96.7399984 L250.106662,96.7399984 L250.106662,99.4 L269.286662,99.4 Z M381.799994,99.3999983 L381.799994,96.7399984 L371.299994,96.7399984 L382.079994,66.4999989 L409.799993,66.4999989 L420.019993,96.7399984 L410.079993,96.7399984 L410.079993,99.3999983 L455.859992,99.3999983 L455.859992,96.7399984 L449.419992,96.7399984 L414.139993,0.55999999 L402.659993,0.55999999 L366.959994,96.7399984 L360.379994,96.7399984 L360.379994,99.3999983 L381.799994,99.3999983 Z M408.679993,63.4199989 L383.339993,63.4199989 L396.499993,26.7399995 L408.679993,63.4199989 Z" id="path-1"></path>
        <path d="M74.3399987,99.4 L76.9999987,66.6399989 L74.0599987,66.6399989 C69.2066655,76.7199987 64.4233322,84.1866652 59.709999,89.0399985 C54.9966657,93.8933317 48.6733325,96.3199984 40.7399993,96.3199984 L40.7399993,96.3199984 L35.6999994,96.3199984 L35.6999994,4.47999992 L50.5399991,4.47999992 L50.5399991,1.39999998 L0.139999998,1.39999998 L0.139999998,4.47999992 L8.39999986,4.47999992 L8.39999986,96.3199984 L0.139999998,96.3199984 L0.139999998,99.4 L74.3399987,99.4 Z M126.233331,99.3999983 L126.233331,96.7399984 L115.733331,96.7399984 L126.513331,66.4999989 L154.233331,66.4999989 L164.453331,96.7399984 L154.513331,96.7399984 L154.513331,99.3999983 L200.29333,99.3999983 L200.29333,96.7399984 L193.85333,96.7399984 L158.573331,0.55999999 L147.093331,0.55999999 L111.393331,96.7399984 L104.813332,96.7399984 L104.813332,99.3999983 L126.233331,99.3999983 Z M153.113331,63.4199989 L127.773331,63.4199989 L140.933331,26.7399995 L153.113331,63.4199989 Z M283.826662,99.4 L283.826662,96.4599984 L271.926662,96.4599984 L271.926662,4.33999993 L273.606662,4.33999993 C279.579995,4.33999993 284.153328,6.60333322 287.326662,11.1299998 C290.499995,15.6566664 294.139995,24.1266663 298.246662,36.5399994 L298.246662,36.5399994 L300.906662,36.5399994 L299.506663,1.39999998 L216.906663,1.39999998 L215.506663,36.5399994 L218.166663,36.5399994 C222.086663,24.4999996 225.679996,16.1233331 228.946663,11.4099998 C232.213329,6.69666655 236.833329,4.33999993 242.806663,4.33999993 L242.806663,4.33999993 L244.626663,4.33999993 L244.626663,96.4599984 L232.726663,96.4599984 L232.726663,99.4 L283.826662,99.4 Z M375.619994,99.4 L375.619994,96.7399984 L367.919994,96.7399984 L367.919994,4.05999993 L375.619994,4.05999993 L375.619994,1.39999998 L332.919994,1.39999998 L332.919994,4.05999993 L340.619994,4.05999993 L340.619994,96.7399984 L332.919994,96.7399984 L332.919994,99.4 L375.619994,99.4 Z M458.313326,99.4 L458.313326,96.3199984 L440.953326,96.3199984 L440.953326,53.6199991 L447.253326,53.6199991 C451.826659,53.6199991 455.443326,55.1133324 458.103326,58.099999 C460.763325,61.0866656 462.839992,66.0799989 464.333325,73.0799988 L464.333325,73.0799988 L466.713325,73.0799988 L466.713325,31.6399995 L464.613325,31.6399995 C463.493325,37.3333327 461.439992,41.8133326 458.453326,45.0799992 C455.466659,48.3466658 451.733326,49.9799991 447.253326,49.9799991 L447.253326,49.9799991 L440.953326,49.9799991 L440.953326,4.47999992 L444.873326,4.47999992 C453.833326,4.47999992 460.576659,6.29999989 465.103325,9.93999983 C469.629992,13.5799998 473.619992,20.4399997 477.073325,30.5199995 L477.073325,30.5199995 L479.593325,30.5199995 L478.193325,1.39999998 L405.393326,1.39999998 L405.393326,4.47999992 L413.653326,4.47999992 L413.653326,96.3199984 L405.393326,96.3199984 L405.393326,99.4 L458.313326,99.4 Z" id="path-3"></path>
    </defs>
    <g id="Page-1" stroke="none" stroke-width="1" fill="none" fill-rule="evenodd">
        <g id="Portfolio" transform="translate(-445.000000, -384.000000)">
            <g id="Group-5" transform="translate(445.000000, 384.000000)">
                <g id="Rectangle">
                    <mask id="mask-2" fill="white">
                        <use xlink:href="#path-1"></use>
                    </mask>
                    <use id="Mask" fill="#000000" fill-rule="nonzero" xlink:href="#path-1"></use>
                    <rect fill="#FFFFFF" mask="url(#mask-2)" x="-1" y="-3" width="275" height="107.799998"></rect>
                </g>
                <g id="Rectangle" transform="translate(120.000000, 156.000000)">
                    <mask id="mask-4" fill="white">
                        <use xlink:href="#path-3"></use>
                    </mask>
                    <use id="Mask" fill="#000000" fill-rule="nonzero" xlink:href="#path-3"></use>
                    <rect fill="#FFFFFF" mask="url(#mask-4)" x="-6.99999988" y="-4.19999993" width="160.999997" height="109.199998"></rect>
                </g>
            </g>
        </g>
    </g>
</svg>